<?xml version="1.0" encoding="UTF-8"?>
<svg xmlns="http://www.w3.org/2000/svg" xmlns:xlink="http://www.w3.org/1999/xlink" width="111px" height="68px" viewBox="0 0 111 68" version="1.1">
<g id="surface1">
<path style=" stroke:none;fill-rule:nonzero;fill:rgb(0%,81.960784%,47.058824%);fill-opacity:1;" d="M 26.257812 18.21875 L 36.402344 18.21875 L 36.402344 46.214844 C 36.402344 59.640625 29.113281 66.066406 18.144531 66.066406 C 13.136719 66.066406 8.699219 64.351562 5.972656 61.996094 L 10.03125 54.359375 C 12.375 55.949219 14.59375 56.90625 17.574219 56.90625 C 22.964844 56.90625 26.257812 53.023438 26.257812 47.425781 L 26.257812 45.707031 C 23.976562 48.441406 20.746094 49.78125 17.195312 49.78125 C 8.507812 49.78125 1.917969 42.527344 1.917969 33.492188 C 1.917969 24.457031 8.507812 17.203125 17.195312 17.203125 C 20.746094 17.203125 23.976562 18.539062 26.257812 21.273438 Z M 19.160156 40.617188 C 23.027344 40.617188 26.257812 37.371094 26.257812 33.492188 C 26.257812 29.609375 23.027344 26.363281 19.160156 26.363281 C 15.292969 26.363281 12.058594 29.609375 12.058594 33.492188 C 12.058594 37.371094 15.292969 40.617188 19.160156 40.617188 Z M 69.445312 48.761719 L 59.304688 48.761719 L 59.304688 46.214844 C 57.339844 48.441406 54.613281 49.78125 51.0625 49.78125 C 43.960938 49.78125 40.03125 44.816406 40.03125 39.152344 C 40.03125 30.753906 50.300781 27.636719 59.175781 30.308594 C 58.988281 27.574219 57.273438 25.601562 53.726562 25.601562 C 51.253906 25.601562 48.398438 26.554688 46.625 27.574219 L 43.582031 20.257812 C 45.929688 18.730469 50.238281 17.203125 55.246094 17.203125 C 62.664062 17.203125 69.445312 21.402344 69.445312 32.855469 Z M 59.304688 36.671875 C 54.550781 35.144531 50.175781 35.972656 50.175781 39.34375 C 50.175781 41.316406 51.824219 42.652344 53.789062 42.652344 C 56.132812 42.652344 58.796875 40.746094 59.304688 36.671875 Z M 84.742188 1.933594 L 84.742188 21.273438 C 87.023438 18.539062 90.253906 17.203125 93.804688 17.203125 C 102.492188 17.203125 109.082031 24.457031 109.082031 33.492188 C 109.082031 42.527344 102.492188 49.78125 93.804688 49.78125 C 90.253906 49.78125 87.023438 48.441406 84.742188 45.707031 L 84.742188 48.761719 L 74.597656 48.761719 L 74.597656 1.933594 Z M 91.839844 40.617188 C 95.707031 40.617188 98.941406 37.371094 98.941406 33.492188 C 98.941406 29.609375 95.707031 26.363281 91.839844 26.363281 C 87.972656 26.363281 84.742188 29.609375 84.742188 33.492188 C 84.742188 37.371094 87.972656 40.617188 91.839844 40.617188 Z M 91.839844 40.617188 "/>
</g>
</svg>